PathFileType	4	(X/Y/Z)	/Users/itak/Documents/Research/Walk-IL/dataset/trc/00067_00006.trc
DataRate	CameraRate	NumFrames	NumMarkers	Units	OrigDataRate	OrigDataStartFrame	OrigNumFrames
100.000000	100.000000	4	53	mm	100.000000	425	680
Frame#	Time	RPSI			LPSI			L3			STRN			T10			C7			CLAV			RBAK			LBAK			LSHO			LUPA			LAEL			LAOL			LWTS			LWPS			LFRA			LIFD			LHPS			LHTS			RSHO			RUPA			RAEL			RAOL			RWTS			RWPS			RFRA			RIFD			RHTS			RHPS			RBHD			LFHD			RFHD			LBHD			LHIP			RHIP			RASI			LASI			LKNE			LTHI			LANK			LTIP			LTOE			LMT1			LMT5			LHEE			RKNE			RTHI			RANK			RTIP			RTOE			RMT1			RMT5			RHEE			
		X1	Y1	Z1	X2	Y2	Z2	X3	Y3	Z3	X4	Y4	Z4	X5	Y5	Z5	X6	Y6	Z6	X7	Y7	Z7	X8	Y8	Z8	X9	Y9	Z9	X10	Y10	Z10	X11	Y11	Z11	X12	Y12	Z12	X13	Y13	Z13	X14	Y14	Z14	X15	Y15	Z15	X16	Y16	Z16	X17	Y17	Z17	X18	Y18	Z18	X19	Y19	Z19	X20	Y20	Z20	X21	Y21	Z21	X22	Y22	Z22	X23	Y23	Z23	X24	Y24	Z24	X25	Y25	Z25	X26	Y26	Z26	X27	Y27	Z27	X28	Y28	Z28	X29	Y29	Z29	X30	Y30	Z30	X31	Y31	Z31	X32	Y32	Z32	X33	Y33	Z33	X34	Y34	Z34	X35	Y35	Z35	X36	Y36	Z36	X37	Y37	Z37	X38	Y38	Z38	X39	Y39	Z39	X40	Y40	Z40	X41	Y41	Z41	X42	Y42	Z42	X43	Y43	Z43	X44	Y44	Z44	X45	Y45	Z45	X46	Y46	Z46	X47	Y47	Z47	X48	Y48	Z48	X49	Y49	Z49	X50	Y50	Z50	X51	Y51	Z51	X52	Y52	Z52	X53	Y53	Z53	

426	4.25	-575.868896484375	1031.420043945312	-238.9037933349609	-422.9143371582031	1013.451416015625	-156.8765869140625	-499.7122497558594	1083.535034179688	-196.8287658691406	-656.7776489257812	1268.32568359375	18.79595184326172	-501.2048645019531	1218.621826171875	-206.1967315673828	-558.0139770507812	1480.678833007812	-152.8984069824219	-647.3886108398438	1384.106323242188	-4.431216716766357	-572.9037475585938	1341.435791015625	-247.4866943359375	-459.3349609375	1453.070678710938	-118.6301651000977	-453.7198791503906	1455.7685546875	6.402866363525391	-358.9723815917969	1344.971435546875	25.57364845275879	-303.1649169921875	1139.67431640625	44.92563629150391	-349.67724609375	1116.386840820312	-48.44697952270508	-347.0289306640625	885.3797607421875	97.03836059570312	-268.1796875	890.5408935546875	68.68856048583984	-281.879638671875	1032.233520507812	65.02516174316406	-332.7391662597656	698.3385620117188	91.83953857421875	-269.8348388671875	805.934814453125	93.32625579833984	-337.3428039550781	801.2373657226562	114.4257736206055	-732.7299194335938	1431.600708007812	-196.5066833496094	-776.2744140625	1366.49462890625	-245.0518493652344	-805.9441528320312	1109.192016601562	-307.04248046875	-742.0752563476562	1076.604370117188	-237.8988189697266	-889.7608642578125	863.4624633789062	-171.7436218261719	-888.0692749023438	850.0259399414062	-258.2525024414062	-829.2719116210938	1030.326049804688	-303.9515380859375	-883.4609375	671.4937133789062	-168.8654937744141	-909.3969116210938	757.7153930664062	-159.5468292236328	-914.963623046875	761.0138549804688	-236.8759002685547	-573.6878662109375	1650.861694335938	-133.4078521728516	-688.228759765625	1679.970703125	47.65951538085938	-562.3058471679688	1679.750732421875	42.44882583618164	-710.8606567382812	1642.780639648438	-118.7980194091797	-402.9334411621094	954.8905029296875	-17.64326667785645	-673.9292602539062	960.6255493164062	-229.5543060302734	-729.7737426757812	969.9199829101562	-115.8265991210938	-513.5332641601562	964.2979125976562	39.07821655273438	-588.6947021484375	548.5846557617188	178.3594818115234	-502.9418334960938	665.3165283203125	120.1797332763672	-583.5740356445312	79.46865844726562	57.80118942260742	-572.1895141601562	294.5097961425781	115.1791152954102	-676.558349609375	104.3117828369141	229.7946014404297	-703.8466186523438	90.49485778808594	167.4781494140625	-593.2952880859375	78.51795196533203	164.5746154785156	-630.21875	80.99776458740234	-20.81461715698242	-709.4288940429688	518.68994140625	-185.3097381591797	-732.510986328125	791.6124267578125	-171.1752777099609	-651.8240966796875	41.01498794555664	-304.6759948730469	-701.933837890625	397.4987182617188	-218.3745574951172	-739.8143310546875	41.71696472167969	-103.7611083984375	-674.5023803710938	52.15821075439453	-133.2991790771484	-734.6640625	42.86233901977539	-211.63525390625	-579.2960815429688	48.95985794067383	-312.2135925292969	
427	4.26	-581.322509765625	1030.061279296875	-231.7835388183594	-427.67041015625	1011.915344238281	-151.0544128417969	-504.5527038574219	1082.173706054688	-190.5657653808594	-659.2523803710938	1266.990478515625	27.01565170288086	-506.075927734375	1217.252685546875	-199.7790679931641	-562.1572875976562	1479.236572265625	-145.5179290771484	-649.9380493164062	1382.768188476562	3.784130096435547	-578.3258056640625	1340.113891601562	-240.0336151123047	-463.1744995117188	1451.566528320312	-112.4079208374023	-456.0824584960938	1454.118408203125	12.5356388092041	-361.1241149902344	1343.3017578125	30.30255699157715	-304.8374938964844	1138.115966796875	48.34321975708008	-352.7057800292969	1114.958374023438	-44.46046829223633	-346.9030151367188	883.5825805664062	100.4979400634766	-268.5085144042969	889.1433715820312	71.00269317626953	-282.8788757324219	1030.744384765625	67.86107635498047	-331.7398071289062	696.5187377929688	94.32967376708984	-269.419677734375	804.4244995117188	95.3590087890625	-336.5152282714844	799.3035888671875	117.3421020507812	-737.4705810546875	1430.480590820312	-187.2511749267578	-781.6573486328125	1365.283569335938	-235.1794891357422	-812.8833618164062	1107.718872070312	-295.822265625	-748.3292236328125	1075.236694335938	-227.1788635253906	-896.3521728515625	863.5538330078125	-157.4906616210938	-895.7462768554688	849.2618408203125	-243.9080963134766	-836.5277709960938	1028.90673828125	-291.8878173828125	-891.1270751953125	671.6221923828125	-152.7236938476562	-916.5049438476562	758.0894165039062	-144.0104827880859	-922.87158203125	760.60986328125	-221.2948303222656	-577.4012451171875	1649.474853515625	-125.8226699829102	-690.095458984375	1678.730102539062	56.38460922241211	-564.206298828125	1678.423217773438	49.89204406738281	-714.4531860351562	1641.498657226562	-109.8440399169922	-406.7501525878906	953.2215576171875	-12.06004810333252	-679.5067138671875	959.6385498046875	-221.5421142578125	-734.1912841796875	968.857177734375	-107.3082656860352	-516.7188720703125	962.8037109375	45.58603668212891	-591.1400146484375	546.996337890625	183.3012390136719	-505.0065612792969	662.8602294921875	125.0856018066406	-597.0010375976562	74.65032958984375	85.34632873535156	-580.5231323242188	291.4823303222656	132.0975341796875	-687.3527221679688	108.1466979980469	257.4894409179688	-715.601318359375	91.99930572509766	196.0939788818359	-605.3040771484375	78.69108581542969	192.1674041748047	-644.5303955078125	73.23773193359375	7.300681114196777	-711.7902221679688	517.7947387695312	-181.0400238037109	-736.2066650390625	790.0910034179688	-164.5734100341797	-651.6058349609375	41.43024063110352	-304.3585205078125	-703.4828491210938	397.0108337402344	-215.3811798095703	-739.8194580078125	41.52785491943359	-103.5258026123047	-674.53662109375	52.00382614135742	-133.0469512939453	-734.6511840820312	42.96106719970703	-211.4583740234375	-579.0261840820312	49.43832778930664	-311.7996215820312	
428	4.27	-586.7186279296875	1028.527221679688	-224.5229949951172	-432.3848876953125	1010.170532226562	-145.0743408203125	-509.3109130859375	1080.651977539062	-184.1463470458984	-661.6172485351562	1265.531860351562	35.31808090209961	-510.7966003417969	1215.713989257812	-193.2414245605469	-566.1206665039062	1477.64794921875	-138.0259246826172	-652.34033203125	1381.30615234375	12.075270652771	-583.5700073242188	1338.649291992188	-232.443603515625	-466.8437805175781	1449.901000976562	-106.0409698486328	-458.3075866699219	1452.310913085938	18.80422973632812	-363.2192687988281	1341.42919921875	35.23861694335938	-306.6034545898438	1136.315551757812	52.02240753173828	-355.6903991699219	1113.353759765625	-40.28878784179688	-347.0309448242188	881.5323486328125	104.1097259521484	-269.0791931152344	887.4946899414062	73.54635620117188	-284.0485534667969	1029.004028320312	70.95027160644531	-331.0834655761719	694.4845581054688	96.95664215087891	-269.2905578613281	802.67822265625	97.58704376220703	-335.9949645996094	797.1461791992188	120.4233627319336	-742.005859375	1429.253173828125	-177.9118804931641	-786.8165893554688	1363.95166015625	-225.2059631347656	-819.54296875	1106.169189453125	-284.4815063476562	-754.31494140625	1073.766357421875	-216.3408355712891	-902.5604248046875	863.5402221679688	-143.1778717041016	-903.0799560546875	848.4288330078125	-229.4967041015625	-843.498046875	1027.378173828125	-279.6889038085938	-898.4199829101562	671.6715087890625	-136.6021728515625	-923.232421875	758.371337890625	-128.4541168212891	-930.4270629882812	760.1516723632812	-205.6688537597656	-580.9423217773438	1647.967529296875	-118.1317443847656	-691.7949829101562	1677.331298828125	65.20091247558594	-565.9550170898438	1676.961791992188	57.43417358398438	-717.8645629882812	1640.087524414062	-100.7922286987305	-410.5814514160156	951.3347778320312	-6.312771320343018	-685.0642700195312	958.530029296875	-213.3726196289062	-738.5955810546875	967.7275390625	-98.63099670410156	-519.9140014648438	961.15478515625	52.28549957275391	-593.5250854492188	544.9407348632812	187.8357696533203	-506.9866027832031	659.9005737304688	129.6991119384766	-609.55224609375	70.70604705810547	112.6935729980469	-588.3551025390625	288.8057861328125	148.6744689941406	-697.46875	112.6330947875977	284.4928588867188	-726.5885009765625	94.26856994628906	224.0594635009766	-616.5862426757812	79.57518768310547	219.3405456542969	-657.91259765625	66.4559326171875	35.26594924926758	-714.1963500976562	516.844970703125	-176.5110626220703	-739.9107055664062	788.4544067382812	-157.7410430908203	-651.3487548828125	41.86631774902344	-304.0143127441406	-705.0947875976562	396.4873352050781	-212.1929321289062	-739.8291625976562	41.33315277099609	-103.2777099609375	-674.55859375	51.83773040771484	-132.7681427001953	-734.6068115234375	43.05070495605469	-211.2507629394531	-578.735107421875	49.96880340576172	-311.3557739257812	
429	4.28	-592.05615234375	1026.8408203125	-217.1153717041016	-437.0570373535156	1008.231384277344	-138.9330749511719	-514.0046997070312	1078.977172851562	-177.5501556396484	-663.8697509765625	1263.96044921875	43.71261978149414	-515.37548828125	1214.013061523438	-186.5683288574219	-569.8961791992188	1475.929809570312	-130.4224395751953	-654.5897216796875	1379.731811523438	20.45243835449219	-588.6300048828125	1337.058471679688	-224.7227478027344	-470.3387145996094	1448.081665039062	-99.53160095214844	-460.3857116699219	1450.3583984375	25.20611953735352	-365.2455139160156	1339.365234375	40.37887191772461	-308.4524536132812	1134.284545898438	55.96944808959961	-358.6484985351562	1111.567626953125	-35.90930557250977	-347.4112854003906	879.2451171875	107.8998565673828	-269.8898010253906	885.6038818359375	76.34335327148438	-285.3798828125	1027.02197265625	74.30493927001953	-330.7776184082031	692.244140625	99.73545074462891	-269.44482421875	800.7042846679688	100.0333404541016	-335.7930297851562	794.7722778320312	123.6911697387695	-746.3323364257812	1427.927856445312	-168.4808959960938	-791.7532348632812	1362.513549804688	-215.1277313232422	-825.926513671875	1104.557006835938	-273.0346984863281	-760.0380859375	1072.204956054688	-205.4020843505859	-908.3983764648438	863.4342651367188	-128.8215484619141	-910.063232421875	847.5349731445312	-215.0323028564453	-850.1830444335938	1025.755004882812	-267.3779296875	-905.3345947265625	671.6532592773438	-120.5015640258789	-929.5789184570312	758.571044921875	-112.8892135620117	-937.6182250976562	759.6436157226562	-190.0123596191406	-584.3054809570312	1646.346069335938	-110.3314743041992	-693.3196411132812	1675.7880859375	74.11380767822266	-567.54638671875	1675.377563476562	65.07993316650391	-721.0883178710938	1638.558715820312	-91.63661956787109	-414.4197692871094	949.24169921875	-0.3969224393367767	-690.5912475585938	957.32470703125	-205.0495452880859	-742.9913940429688	966.5372924804688	-89.78769683837891	-523.1107177734375	959.3654174804688	59.17935180664062	-595.8822021484375	542.5045166015625	192.0703887939453	-508.9241943359375	656.502685546875	134.0680541992188	-621.1824340820312	67.64215087890625	139.6077423095703	-595.6600341796875	286.5171508789062	164.8262176513672	-706.7977905273438	117.7135848999023	310.6543884277344	-736.7198486328125	97.26063537597656	251.2252960205078	-627.0532836914062	81.13140106201172	245.8847045898438	-670.348876953125	60.69001770019531	62.85051345825195	-716.6497192382812	515.8440551757812	-171.7219543457031	-743.6583862304688	786.7521362304688	-150.6173248291016	-651.060302734375	42.33013534545898	-303.6475830078125	-706.7698364257812	395.9294128417969	-208.806396484375	-739.8463134765625	41.13606643676758	-103.0197448730469	-674.5670776367188	51.66114044189453	-132.4658050537109	-734.534912109375	43.12913131713867	-211.0155487060547	-578.426513671875	50.56298446655273	-310.8876037597656	
